HIERARCHY
ROOT Hips
{
  OFFSET -69.4423 88.0299 51.6846
  CHANNELS 6 Xposition Yposition Zposition Zrotation Xrotation Yrotation
  JOINT Spine
  {
    OFFSET 12.0259 -0.162853 1.93176e-005
    CHANNELS 3 Zrotation Xrotation Yrotation
    JOINT Spine1
    {
      OFFSET 15.3169 -0.0121909 0
      CHANNELS 3 Zrotation Xrotation Yrotation
      JOINT Spine2
      {
        OFFSET 15.3176 -0.0121922 0
        CHANNELS 3 Zrotation Xrotation Yrotation
        JOINT Neck
        {
          OFFSET 19.9142 1.56236 0
          CHANNELS 3 Zrotation Xrotation Yrotation
          JOINT Head
          {
            OFFSET 6.92646 0 0
            CHANNELS 3 Zrotation Xrotation Yrotation
            End Site
            {
              OFFSET 20.7666 0 0
            }
          }
          JOINT LeftShoulder
          {
            OFFSET -4.94072 -1.14703 8.14416
            CHANNELS 3 Zrotation Xrotation Yrotation
            JOINT LeftArm
            {
              OFFSET 14.108 0 -2.74767e-005
              CHANNELS 3 Zrotation Xrotation Yrotation
              JOINT LeftForeArm
              {
                OFFSET 28.5802 -0.0783412 -0.0284884
                CHANNELS 3 Zrotation Xrotation Yrotation
                JOINT LeftHand
                {
                  OFFSET 27.092 0 0
                  CHANNELS 3 Zrotation Xrotation Yrotation
                  End Site
                  {
                    OFFSET 9.55928 -0.186424 0.145352
                  }
                }
              }
            }
          }
          JOINT RightShoulder
          {
            OFFSET -7.15748 -1.33027 -6.24935
            CHANNELS 3 Zrotation Xrotation Yrotation
            JOINT RightArm
            {
              OFFSET 14.108 0 1.82997e-005
              CHANNELS 3 Zrotation Xrotation Yrotation
              JOINT RightForeArm
              {
                OFFSET 28.5802 -0.0707221 2.30684e-005
                CHANNELS 3 Zrotation Xrotation Yrotation
                JOINT RightHand
                {
                  OFFSET 27.092 0 -1.30073e-005
                  CHANNELS 3 Zrotation Xrotation Yrotation
                  End Site
                  {
                    OFFSET 9.55929 -0.186417 -0.145354
                  }
                }
              }
            }
          }
        }
      }
    }
  }
  JOINT LeftUpLeg
  {
    OFFSET 0.00499725 -0.534999 8.837
    CHANNELS 3 Zrotation Xrotation Yrotation
    JOINT LeftLeg
    {
      OFFSET 39.9035 -0.00124594 0.000252775
      CHANNELS 3 Zrotation Xrotation Yrotation
      JOINT LeftFoot
      {
        OFFSET 39.6689 0 0
        CHANNELS 3 Zrotation Xrotation Yrotation
        JOINT LeftToe
        {
          OFFSET 10.1624 13.6296 0
          CHANNELS 3 Zrotation Xrotation Yrotation
          End Site
          {
            OFFSET 8.38147 0 0
          }
        }
      }
    }
  }
  JOINT RightUpLeg
  {
    OFFSET 0.00499725 -0.535 -8.837
    CHANNELS 3 Zrotation Xrotation Yrotation
    JOINT RightLeg
    {
      OFFSET 39.9036 -0.000268477 0.000106433
      CHANNELS 3 Zrotation Xrotation Yrotation
      JOINT RightFoot
      {
        OFFSET 39.6689 1.17892e-005 0
        CHANNELS 3 Zrotation Xrotation Yrotation
        JOINT RightToe
        {
          OFFSET 10.1624 13.6296 0
          CHANNELS 3 Zrotation Xrotation Yrotation
          End Site
          {
            OFFSET 8.38147 0 0
          }
        }
      }
    }
  }
}
MOTION
Frames:	8
Frame Time:	0.0333333
-30.1538 87.2485 62.6454 -92.6522 2.56834 -179.79 1.27614 1.44744 0.154376 2.54963 2.89846 0.276742 2.54962 2.89844 0.276734 -16.2308 1.00817 -9.02587 47.3858 2.86627 4.47072 -164.779 0.515516 -95.5118 -67.4649 12.627 84.197 -72.2456 15.5049 -32.6076 -178.169 -74.1466 -175.439 -165.442 -2.38849 77.6724 -53.9287 -14.1823 -88.8683 -77.9384 -23.7475 33.5253 177.569 75.3396 -178.065 3.58482 -9.30901 178.397 -21.9457 1.17445 -1.52276 4.42287 10.6223 2.40597 90 2.38542e-015 -0 -32.452 1.02996 174.801 -24.3401 -0.282569 1.47126 -7.86729 -6.61908 -3.22745 90 7.95139e-016 -1.19271e-015 
-28.0792 87.3135 62.6553 -92.5827 0.438476 -179.947 1.31822 1.37842 0.295667 2.63046 2.7638 0.559914 2.63046 2.76381 0.559901 -16.0779 1.22754 -8.69173 47.3457 3.15057 3.90489 -164.892 0.852011 -95.2745 -67.7485 12.4982 84.6262 -72.0842 15.3523 -32.6025 -177.666 -74.5772 -174.999 -165.545 -2.02118 77.902 -53.9815 -14.6615 -89.308 -78.0279 -23.8482 33.5382 177.203 76.6682 -177.681 3.76484 -10.6657 178.879 -23.4359 1.2065 -1.48657 2.72325 13.2639 2.82813 90 3.18055e-015 -0 -31.1507 1.39966 175.14 -25.0523 -0.354074 1.46791 -8.3444 -9.26342 -4.24262 90 7.95139e-015 -0 
-25.6574 87.6607 63.1025 -92.4617 0.166975 179.177 1.30607 1.62312 0.546297 2.59816 3.25879 1.0562 2.59816 3.25877 1.05619 -15.7673 1.52494 -8.09282 47.3541 3.21615 2.6787 -165.208 1.17301 -94.8488 -68.0068 12.4273 85.4527 -71.7176 15.2378 -32.6242 -177.724 -75.747 -174.999 -165.775 -1.6537 78.3094 -54.5979 -15.4636 -89.773 -78.1286 -23.9291 33.5449 176.919 77.7413 -177.37 4.71673 -9.84815 -179.667 -24.4382 1.0536 -1.61469 0.118354 15.6805 3.61724 90 5.56597e-015 6.36111e-015 -29.6502 4.0219 177.334 -24.1113 -0.732707 1.28784 -14.6464 -13.2304 -6.36994 90 4.77083e-015 6.36111e-015 
-23.2393 88.0575 63.1214 -92.2972 -2.89229 177.744 1.28974 1.34405 1.01431 2.55653 2.71077 1.99908 2.55652 2.71077 1.99907 -15.2917 1.80994 -7.46041 47.1075 2.99207 1.09967 -165.631 1.85722 -94.3495 -68.023 12.1341 86.4082 -71.2368 15.0024 -32.6405 -177.794 -75.9811 -175.038 -166.193 -0.925021 78.7926 -55.6503 -16.9484 -89.7217 -78.285 -24.0389 33.5517 177.217 76.3637 -177.652 4.06472 -11.5737 -178.168 -27.968 1.25521 -1.4619 -2.74876 16.8114 4.34886 90 -6.36111e-015 6.36111e-015 -27.6568 2.50628 177.654 -24.3724 -0.464615 1.38151 -14.066 -8.5125 -4.12068 90 0 -3.18055e-015 
-20.7413 88.4349 63.0263 -92.0254 -5.23707 178.004 1.3391 1.1118 1.08737 2.65766 2.24909 2.14923 2.65765 2.24903 2.14923 -15.5024 2.11834 -7.44217 47.9833 3.60592 0.774834 -165.404 2.14182 -94.4017 -67.549 12.0825 87.4762 -71.0763 14.8816 -32.627 -177.437 -77.1076 -174.696 -165.959 -0.579533 78.7294 -55.4551 -16.5339 -89.9398 -77.9319 -23.7939 33.5331 177.224 76.556 -177.639 3.01308 -11.8375 -178.403 -31.0843 1.37081 -1.29271 -7.95254 18.4789 5.63043 90 2.38542e-015 -3.18055e-015 -25.8911 1.18085 176.631 -25.6099 -0.441164 1.39086 -11.6302 -7.92044 -3.74884 90 3.18055e-015 -1.59028e-015 
-18.086 88.87 62.9627 -91.1288 -7.06544 177.471 1.46285 1.00923 1.3365 2.90247 2.05245 2.64759 2.90246 2.05244 2.64758 -15.582 2.42588 -8.05964 48.9528 4.63011 1.1192 -165.295 2.1714 -95.0597 -67.6161 12.5086 88.8189 -71.2253 14.9179 -32.5983 -177.195 -79.408 -174.445 -165.842 -0.486614 78.0568 -55.8831 -17.1644 -89.7515 -77.6713 -23.6247 33.5232 177.266 76.9597 -177.629 1.69578 -11.2292 -177.768 -35.3235 1.4335 -1.13212 -17.3324 19.0965 7.97782 90 -1.59028e-015 -9.54166e-015 -22.9082 -0.220557 176.802 -25.843 -0.49312 1.35717 -10.4543 -7.77065 -3.61563 90 1.59028e-015 -1.59028e-015 
-15.666 89.1003 63.2222 -92.0539 -8.98288 175.618 1.27189 1.03956 1.72148 2.51262 2.117 3.42049 2.51261 2.11702 3.42047 -16.1048 2.39113 -8.211 49.6331 4.54814 1.21498 -164.793 1.95548 -95.2221 -68.5578 12.6367 88.3435 -70.9111 14.7644 -32.5947 -177.554 -80.2842 -174.787 -165.348 -0.651188 77.8869 -55.5449 -17.085 -88.9597 -77.5067 -23.5048 33.4739 177.294 77.9763 -177.607 -2.4313 -9.46347 -175.465 -39.8302 1.35131 -0.953455 -29.3223 18.5132 11.0516 90 6.36111e-015 3.18055e-015 -21.5511 -1.46328 178.459 -25.6425 -0.56441 1.31628 -9.34333 -6.91275 -3.16531 90 0 -1.59028e-015 
-13.2016 89.4073 63.2385 -91.0463 -10.7705 175.259 1.47745 1.1327 1.83196 2.91884 2.31202 3.63535 2.91884 2.31206 3.63533 -16.3211 2.28602 -8.22204 49.8952 4.30262 1.2342 -164.588 1.81538 -95.2018 -68.6255 12.4541 88.0025 -70.9433 14.7236 -32.5975 -176.761 -81.36 -174.027 -165.132 -0.848311 77.8858 -55.9749 -17.3042 -88.1852 -77.6918 -23.6329 33.4887 177.469 77.3684 -177.799 -5.37712 -8.1636 -174.539 -45.1325 1.24514 -0.733828 -33.3074 19.5166 12.8503 90 -1.27222e-014 -3.18055e-015 -18.1965 -1.18353 179.179 -25.246 -0.601624 1.26282 -8.38434 -5.02255 -2.31621 90 0 3.18055e-015 
